<svg width="247" height="42" viewBox="0 0 247 42" fill="none" xmlns="http://www.w3.org/2000/svg">
<g clip-path="url(#clip0_585_12056)">
<path d="M15.2595 36.7689H20.6624V5.45312H12.7771C4.89181 5.45312 0.730121 9.50576 0.730121 15.6215C0.730121 20.4847 2.9935 23.2847 7.08218 26.2321L0 36.7689H5.84097L13.7263 24.9058L11.0248 23.0637C7.73929 20.7794 6.13302 19.011 6.13302 15.2531C6.13302 11.9373 8.46941 9.65313 12.8501 9.65313H15.2595V36.7689ZM119.594 37.211C122.076 37.211 123.829 36.7689 125.07 35.811V31.4636C123.756 32.4215 122.149 33.011 119.886 33.011C116.089 33.011 114.556 30.0637 114.556 25.3479C114.556 20.411 116.454 17.9058 119.959 17.9058C122.003 17.9058 124.048 18.6426 125.07 19.3058V14.7373C123.975 14.0742 122.003 13.6321 119.375 13.6321C112.585 13.6321 109.08 18.5689 109.08 25.4215C109.007 33.0847 112.439 37.211 119.594 37.211ZM86.3003 35.2952V30.9479C84.621 32.0531 81.8466 33.0847 79.2912 33.0847C75.4215 33.0847 73.9613 31.2426 73.6692 27.411H86.5194V24.5373C86.5194 16.6531 83.0878 13.6321 77.7579 13.6321C71.2598 13.6321 68.1933 18.6426 68.1933 25.4952C68.1933 33.3794 72.063 37.211 78.8531 37.211C82.2117 37.211 84.6941 36.3268 86.3003 35.2952ZM37.5282 14.0742V23.0637H30.4461V14.0742H25.1162V36.7689H30.4461V27.3373H37.5282V36.8426H42.8581V14.0742H37.5282ZM66.8791 32.5689H64.5427V14.1479H48.9911V16.0637C48.9911 21.59 48.6261 28.811 46.7278 32.5689H45.0485V42.0005H49.9403V36.8426H61.9143V42.0005H66.8061V32.5689H66.8791ZM103.312 36.7689H109.372L100.757 24.5373L108.277 14.0742H102.947L95.4268 24.5373V14.0742H90.097V36.7689H95.4268V25.6426L103.312 36.7689ZM77.6849 17.9058C80.3133 17.9058 81.1165 20.1163 81.1165 22.99V23.4321H73.6692C73.8153 19.7479 75.1295 17.9058 77.6849 17.9058ZM59.2128 32.5689H51.6926C53.1528 29.1058 53.5909 22.99 53.5909 19.011V18.3479H59.2128V32.5689Z" fill="white"/>
<path d="M170.266 32.3478C166.907 35.3689 162.453 37.1373 157.708 37.1373C147.632 37.1373 140.039 29.2531 140.039 20.2636C140.039 11.7899 146.756 4.8636 155.006 4.8636C162.819 4.8636 168.513 10.9794 168.513 17.611C168.513 23.8004 163.622 28.8847 157.708 28.8847C152.232 28.8847 148.362 24.6847 148.362 20.2636C148.362 16.2847 151.429 13.1162 155.006 13.1162C158.219 13.1162 160.19 15.4741 160.19 17.611C160.19 19.4531 158.876 20.632 157.635 20.632C157.197 20.632 157.051 20.5583 156.905 20.411C157.27 19.8952 157.489 19.232 157.416 18.5689C157.197 17.2425 156.028 16.3583 154.714 16.5057C153.619 16.6531 152.889 17.4636 152.524 17.9794C152.159 18.6425 151.94 19.3794 151.94 20.1899C151.94 23.3583 154.86 25.4215 157.708 25.4215C161.869 25.4215 165.009 21.7373 165.009 17.5373C165.009 12.3794 160.628 8.17939 155.079 8.17939C148.654 8.17939 143.616 13.7057 143.616 20.1899C143.616 27.5583 149.822 33.6741 157.708 33.6741C166.469 33.6741 173.332 26.3057 173.332 17.5373C173.332 8.1057 165.374 -0.0732422 155.079 -0.0732422C144.054 -0.0732422 135.293 9.0636 135.293 20.1899C135.293 32.0531 145.15 41.9268 157.708 41.9268C163.695 41.9268 169.244 39.6425 173.478 35.8847L170.266 32.3478Z" fill="white"/>
<path d="M185.305 5.45312V36.8426H202.974V32.5689H190.708V23.1373H200.929V18.8637H190.708V9.65313H202.755V5.45312H185.305Z" fill="white"/>
<path d="M227.213 32.5685H224.877V14.1475H209.325V16.0632C209.325 21.5896 208.96 28.8106 207.062 32.5685H205.383V42.0001H210.275V36.8422H222.249V42.0001H227.14V32.5685H227.213ZM219.547 32.5685H212.027C213.487 29.1054 213.925 22.9896 213.925 19.0106V18.3475H219.547V32.5685Z" fill="white"/>
<path d="M246.708 21.2955C246.708 15.7692 243.934 13.7061 238.312 13.7061C234.807 13.7061 232.033 14.8113 230.427 15.7692V20.2639C231.887 19.1587 234.953 17.9797 237.728 17.9797C240.283 17.9797 241.451 18.8639 241.451 21.2955V22.5482H240.575C232.471 22.5482 228.82 25.2745 228.82 29.8429C228.82 34.4113 231.595 36.9903 235.683 36.9903C238.823 36.9903 240.137 35.9587 241.159 34.8534H241.378C241.451 35.4429 241.597 36.1797 241.743 36.6218H246.927C246.781 34.7797 246.635 32.9376 246.635 31.0955V21.2955H246.708ZM241.378 31.3903C240.721 32.3482 239.48 33.1587 237.582 33.1587C235.318 33.1587 234.223 31.8324 234.223 29.7692C234.223 27.1166 236.049 26.1587 240.648 26.1587H241.378V31.3903Z" fill="white"/>
</g>
<defs>
<clipPath id="clip0_585_12056">
<rect width="247" height="42" fill="white"/>
</clipPath>
</defs>
</svg>
